<svg xmlns="http://www.w3.org/2000/svg" width="40" height="40" viewBox="0 0 40 40">
  <g id="Address" transform="translate(-4581 -1069)">
    <circle id="Ellipse_3" data-name="Ellipse 3" cx="20" cy="20" r="20" transform="translate(4581 1069)" fill="#679ad2"/>
    <g id="vuesax_linear_location" data-name="vuesax/linear/location" transform="translate(4161 889)">
      <g id="location">
        <path id="Vector" d="M6.24,3.12A3.12,3.12,0,1,1,3.12,0,3.12,3.12,0,0,1,6.24,3.12Z" transform="translate(436.88 195.19)" fill="none" stroke="#fff" stroke-width="1.5"/>
        <path id="Vector-2" data-name="Vector" d="M.243,6.49c1.97-8.66,14.8-8.65,16.76.01,1.15,5.08-2.01,9.38-4.78,12.04a5.193,5.193,0,0,1-7.21,0C2.253,15.88-.907,11.57.243,6.49Z" transform="translate(431.377 190)" fill="none" stroke="#fff" stroke-width="1.5"/>
        <path id="Vector-3" data-name="Vector" d="M0,0H24V24H0Z" transform="translate(452 212) rotate(180)" fill="none" opacity="0"/>
      </g>
    </g>
  </g>
</svg>
