<svg xmlns="http://www.w3.org/2000/svg" width="40" height="40" viewBox="0 0 40 40">
  <g id="City" transform="translate(-4581 -1069)">
    <circle id="Ellipse_3" data-name="Ellipse 3" cx="20" cy="20" r="20" transform="translate(4581 1069)" fill="#679ad2"/>
    <path id="buildings" d="M27.333,32.605H26V22.913a1.36,1.36,0,0,0-1.333-1.385H19.333V17.375a1.393,1.393,0,0,0-.7-1.222,1.291,1.291,0,0,0-1.369.069l-6.667,4.614A1.4,1.4,0,0,0,10,21.991V32.605H8.667a.693.693,0,0,0,0,1.385H27.333a.693.693,0,0,0,0-1.385Zm-2.667-9.692v9.692H19.333V22.913Zm-13.333-.922L18,17.375v15.23H11.333ZM16.667,24.3v1.385a.667.667,0,1,1-1.333,0V24.3a.667.667,0,1,1,1.333,0ZM14,24.3v1.385a.667.667,0,1,1-1.333,0V24.3A.667.667,0,1,1,14,24.3Zm0,4.846v1.385a.667.667,0,1,1-1.333,0V29.144a.667.667,0,1,1,1.333,0Zm2.667,0v1.385a.667.667,0,1,1-1.333,0V29.144a.667.667,0,1,1,1.333,0Z" transform="translate(4583 1064.01)" fill="#fff"/>
  </g>
</svg>
