<svg xmlns="http://www.w3.org/2000/svg" width="40" height="40" viewBox="0 0 40 40">
  <g id="Code_in_Clinic" data-name="Code in Clinic" transform="translate(-4581 -1069)">
    <circle id="Ellipse_3" data-name="Ellipse 3" cx="20" cy="20" r="20" transform="translate(4581 1069)" fill="#679ad2"/>
    <path id="user-focus" d="M52,33.667v2.917a.833.833,0,0,1-1.667,0V33.667H47.417a.833.833,0,1,1,0-1.667h2.917A1.667,1.667,0,0,1,52,33.667Zm-.833,12.917a.833.833,0,0,0-.833.833v2.917H47.417a.833.833,0,0,0,0,1.667h2.917A1.667,1.667,0,0,0,52,50.333V47.417A.833.833,0,0,0,51.167,46.583Zm-14.583,3.75H33.667V47.417a.833.833,0,1,0-1.667,0v2.917A1.667,1.667,0,0,0,33.667,52h2.917a.833.833,0,0,0,0-1.667Zm-3.75-12.917a.833.833,0,0,0,.833-.833V33.667h2.917a.833.833,0,0,0,0-1.667H33.667A1.667,1.667,0,0,0,32,33.667v2.917A.833.833,0,0,0,32.833,37.417ZM47,47a.833.833,0,0,1-.668-.332,5.417,5.417,0,0,0-8.667,0,.834.834,0,0,1-1.333-1,7.077,7.077,0,0,1,2.855-2.258,4.167,4.167,0,1,1,5.619,0,7.077,7.077,0,0,1,2.857,2.258A.833.833,0,0,1,47,47Zm-5-4.167a2.5,2.5,0,1,0-2.5-2.5A2.5,2.5,0,0,0,42,42.833Z" transform="translate(4559 1047)" fill="#fff"/>
  </g>
</svg>
