<svg width="38" height="29" viewBox="0 0 38 29" fill="none" xmlns="http://www.w3.org/2000/svg">
<g clip-path="url(#clip0_10_33224)">
<path d="M0 19H38V28.5H0V19Z" fill="black"/>
<path d="M0 9.5H38V19H0V9.5Z" fill="white"/>
<path d="M0 0H38V9.5H0V0Z" fill="#CE1126"/>
<path d="M19.0378 14.3639L22.2915 17.3849L22.0588 11.8986C22.0255 11.0674 21.3035 11.2574 20.7763 11.5566C20.249 11.8986 19.6363 11.8986 18.9998 11.6754C18.3585 11.8986 17.7505 11.8986 17.2233 11.5566C16.7008 11.2574 15.974 11.0674 15.9408 11.8986L15.708 17.3849L19.0378 14.3639Z" fill="white" stroke="#C09300" stroke-width="0.13" stroke-linejoin="round"/>
<path d="M16.316 11.709L16.088 17.0432L15.708 17.3852L15.9408 11.899C16.053 11.8129 16.1802 11.7485 16.316 11.709ZM16.772 12.089L16.582 16.554L16.202 16.9435L16.43 11.7897C16.506 11.8657 16.7293 12.051 16.772 12.089ZM17.1853 12.431L17.038 16.155L16.7293 16.4542L16.9193 12.2077C16.9953 12.279 17.1473 12.3882 17.1853 12.431ZM17.6365 12.621L17.4893 15.794L17.19 16.0362L17.3373 12.507C17.4133 12.5402 17.5605 12.621 17.6365 12.621ZM18.0545 12.621L17.9453 15.2667L17.6365 15.566L17.7553 12.6542C17.8265 12.6542 18.0213 12.6542 18.0545 12.621Z" fill="#C09300"/>
<path d="M21.6835 11.709L21.9115 17.0432L22.2915 17.3852L22.0588 11.899C21.9465 11.8129 21.8193 11.7485 21.6835 11.709ZM21.2275 12.089L21.4175 16.554L21.7975 16.9435L21.5695 11.7897C21.4935 11.8657 21.2703 12.051 21.2275 12.089ZM20.8143 12.431L20.9615 16.155L21.2703 16.4542L21.0803 12.2077C21.0043 12.279 20.8523 12.3882 20.8143 12.431ZM20.363 12.621L20.5103 15.794L20.8095 16.0362L20.6623 12.507C20.5863 12.5402 20.439 12.621 20.363 12.621ZM19.945 12.621L20.0543 15.2667L20.363 15.566L20.2443 12.6542C20.173 12.6542 19.9783 12.6542 19.945 12.621Z" fill="#C09300"/>
<path d="M19.1516 14.9619L19.6076 17.0424L19.4556 17.1944L19.2989 17.0757L19.0424 15.2232L19.1516 17.0757L18.9996 17.2657L18.8524 17.0757L18.9616 15.2232L18.7004 17.0757L18.5436 17.1944L18.3916 17.0424L18.8476 14.9667H19.1516V14.9619Z" fill="#C09300" stroke="#C09300" stroke-width="0.11"/>
<path d="M17.9785 14.0508L17.0713 17.2665L18.3205 17.4565L18.8478 15.0388L17.9785 14.0508Z" fill="white" stroke="#C09300" stroke-width="0.12" stroke-linejoin="round"/>
<path d="M17.6792 15.1528L17.7884 15.414L18.3774 14.8535" stroke="#C09300" stroke-width="0.13" stroke-linejoin="round"/>
<path d="M18.0877 14.4873L18.2112 15.6416L18.5864 15.1476M18.4344 15.3376L18.6387 16.0501M18.7194 15.7888L18.3062 16.4158M18.4344 17.0428L18.3014 16.4158L18.1874 15.7793L17.9072 16.1546L17.7884 15.7223L17.3989 16.1213L17.5937 16.8433L17.8692 16.3968L18.0164 16.8528L18.3014 16.4158" stroke="#C09300" stroke-width="0.13" stroke-linejoin="round"/>
<path d="M17.3374 17.1951L17.5892 16.8389L17.7507 17.3851L17.9787 17.0051L18.1259 17.4611" stroke="#C09300" stroke-width="0.13" stroke-linejoin="round"/>
<path d="M20.021 14.0508L20.9282 17.2665L19.679 17.4565L19.1517 15.0388L20.021 14.0508Z" fill="white" stroke="#C09300" stroke-width="0.12" stroke-linejoin="round"/>
<path d="M20.3203 15.1528L20.2111 15.414L19.6221 14.8535" stroke="#C09300" stroke-width="0.13" stroke-linejoin="round"/>
<path d="M19.9118 14.4873L19.7883 15.6416L19.4131 15.1476M19.5651 15.3376L19.3608 16.0501M19.2801 15.7888L19.6933 16.4158M19.5651 17.0428L19.6981 16.4158L19.8121 15.7793L20.0923 16.1546L20.2111 15.7223L20.6006 16.1213L20.4058 16.8433L20.1303 16.3968L19.9831 16.8528L19.6981 16.4158" stroke="#C09300" stroke-width="0.13" stroke-linejoin="round"/>
<path d="M20.6621 17.1951L20.4104 16.8389L20.2489 17.3851L20.0209 17.0051L19.8736 17.4611" stroke="#C09300" stroke-width="0.13" stroke-linejoin="round"/>
<path d="M18.9997 18.7054C19.9497 18.7054 20.8522 18.6294 21.3842 18.4822C21.6075 18.4394 21.6075 18.3254 21.6075 18.1734C21.8355 18.0974 21.7215 17.8314 21.8782 17.8314C21.7167 17.8789 21.6882 17.5702 21.4982 17.6082C21.4982 17.3422 21.2275 17.3089 21.0042 17.3849C20.553 17.5322 19.755 17.5702 18.9997 17.5702C18.2397 17.5322 17.4512 17.5322 16.9952 17.3802C16.772 17.3089 16.506 17.3422 16.506 17.6082C16.316 17.5702 16.2827 17.8742 16.126 17.8314C16.2827 17.8314 16.164 18.1022 16.392 18.1734C16.392 18.3254 16.392 18.4394 16.62 18.4822C17.1425 18.6294 18.0545 18.7054 18.9997 18.7054Z" fill="white" stroke="#C09300" stroke-width="0.24" stroke-linecap="round" stroke-linejoin="round"/>
<path d="M17.7127 17.2658C18.0167 17.3085 18.3587 17.3418 18.6247 17.3085C18.7767 17.3085 18.8859 17.5698 18.5819 17.6078C18.3207 17.641 17.9027 17.6078 17.6794 17.5698C17.3856 17.5184 17.094 17.455 16.8054 17.3798C16.5394 17.2658 16.7294 17.0473 16.8814 17.0758C17.1526 17.1627 17.4307 17.2262 17.7127 17.2658ZM20.2872 17.2658C19.9832 17.3085 19.6412 17.3418 19.3847 17.3085C19.2232 17.3085 19.1139 17.5698 19.4179 17.6078C19.6839 17.641 20.0972 17.6078 20.3204 17.5698C20.5104 17.5318 20.9284 17.4605 21.1944 17.3798C21.4604 17.2658 21.2704 17.0473 21.1184 17.0758C20.8472 17.1627 20.5691 17.2262 20.2872 17.2658Z" fill="white" stroke="#C09300" stroke-width="0.13" stroke-linecap="round" stroke-linejoin="round"/>
<path d="M16.7673 17.1188C16.5393 17.0761 16.4348 17.3421 16.506 17.4941C16.5393 17.4181 16.696 17.4181 16.7293 17.3421C16.772 17.2281 16.696 17.2281 16.772 17.1188H16.7673ZM17.6793 17.8171C17.6793 17.6651 17.8265 17.6841 17.8265 17.5321C17.8265 17.4608 17.7885 17.3421 17.7125 17.3421C17.6729 17.3444 17.6356 17.3611 17.6075 17.3891C17.5795 17.4172 17.5628 17.4545 17.5605 17.4941C17.5273 17.6413 17.6793 17.6651 17.6793 17.8171ZM18.7575 17.3848C18.9808 17.3848 18.957 17.6841 18.8525 17.8361C18.8525 17.7268 18.6625 17.6841 18.6625 17.6081C18.6625 17.4941 18.8335 17.4941 18.7575 17.3848ZM21.2275 17.1188C21.4603 17.0761 21.5695 17.3421 21.4935 17.4941C21.4603 17.4181 21.3035 17.4181 21.2703 17.3421C21.2275 17.2281 21.3035 17.2281 21.2275 17.1188ZM20.3298 17.8123C20.3298 17.6603 20.1778 17.6793 20.1778 17.5273C20.1778 17.4561 20.2158 17.3373 20.2918 17.3373C20.3313 17.3396 20.3687 17.3564 20.3967 17.3844C20.4247 17.4124 20.4415 17.4498 20.4438 17.4893C20.477 17.6366 20.325 17.6603 20.325 17.8123H20.3298ZM19.2373 17.3848C19.014 17.3848 19.0378 17.6841 19.1423 17.8361C19.1423 17.7268 19.3323 17.6841 19.3323 17.6081C19.3323 17.4941 19.1613 17.4941 19.2373 17.3848Z" fill="white" stroke="#C09300" stroke-width="0.13" stroke-linecap="round" stroke-linejoin="round"/>
<path d="M16.8481 17.1943C16.9241 17.1943 17.0381 17.2276 17.0714 17.2703L16.8481 17.1943ZM17.2234 17.3083C17.2614 17.3083 17.4134 17.3416 17.4846 17.3843L17.2234 17.3083ZM18.5819 17.4603C18.5106 17.4603 18.3586 17.4603 18.3206 17.4936L18.5819 17.4556V17.4603ZM18.1686 17.4603C18.1259 17.4176 17.9786 17.4176 17.9026 17.4603H18.1686ZM21.1516 17.1943C21.0711 17.1954 20.9929 17.222 20.9284 17.2703L21.1516 17.1943ZM20.7811 17.3083C20.7336 17.3083 20.5911 17.3416 20.5151 17.3843L20.7811 17.3083ZM19.4179 17.4603C19.4891 17.4603 19.6411 17.4603 19.6839 17.4936L19.4179 17.4556V17.4603ZM19.8311 17.4603C19.8739 17.4176 20.0211 17.4176 20.0971 17.4603H19.8311Z" fill="white" stroke="#C09300" stroke-width="0.09" stroke-linecap="round" stroke-linejoin="round"/>
<path d="M16.7815 17.7925C16.7577 17.7877 16.7435 17.764 16.753 17.745C16.7577 17.7117 16.7815 17.6975 16.8005 17.707C16.8195 17.707 16.8432 17.7355 16.8432 17.745L16.8242 17.7782L16.8147 17.783C16.8147 17.7925 16.7957 17.7925 16.7815 17.7925ZM19.394 17.9777C19.3845 17.9777 19.3655 17.954 19.3655 17.9445C19.3655 17.9255 19.394 17.897 19.413 17.897L19.451 17.916C19.4652 17.9302 19.4652 17.9587 19.4462 17.973C19.4367 17.9825 19.4082 17.9825 19.394 17.973V17.9777ZM19.4082 18.0965C19.3892 18.087 19.3845 18.0775 19.3797 18.0585C19.3797 18.0347 19.3797 18.03 19.4035 18.0157L19.4225 18.0062L19.4415 18.0157C19.4605 18.0252 19.4747 18.0347 19.4747 18.0537C19.4747 18.068 19.4605 18.0822 19.4415 18.0917C19.4272 18.1012 19.4225 18.1012 19.4082 18.0917V18.0965Z" fill="#C09300"/>
<path d="M16.9951 17.5742C16.9761 17.5742 16.9524 17.5932 16.9381 17.6027C16.9096 17.6075 16.8716 17.6265 16.8431 17.6027C16.8146 17.598 16.7766 17.6027 16.7719 17.6407C16.7766 17.674 16.8194 17.6882 16.8479 17.6692C16.8669 17.6455 16.9191 17.6265 16.9286 17.6692C16.9049 17.7072 16.9096 17.75 16.8906 17.7832C16.8906 17.807 16.8764 17.826 16.8669 17.845C16.8431 17.845 16.8194 17.845 16.8004 17.8592C16.7856 17.8592 16.7711 17.8627 16.7579 17.8692C16.7447 17.8758 16.7332 17.8854 16.7244 17.8972C16.7054 17.9257 16.6864 17.9542 16.6816 17.9922C16.6864 18.0207 16.7291 18.0302 16.7576 18.035L16.8526 18.0635L17.0046 18.1062C17.0806 18.13 17.1566 18.1395 17.2326 18.1585L17.2564 18.1632C17.2896 18.1727 17.3039 18.1395 17.3039 18.1157L17.3514 17.9447C17.3609 17.921 17.3751 17.8735 17.3324 17.883C17.3086 17.8972 17.2849 17.921 17.2564 17.921C17.2136 17.921 17.2374 17.9685 17.2564 17.9827C17.2564 18.0112 17.2469 18.0445 17.2326 18.0682C17.2041 18.0825 17.1756 18.0682 17.1471 18.0587C17.1234 18.0587 17.0664 18.0445 17.0901 18.0112L17.1139 17.9257C17.1281 17.8972 17.1281 17.864 17.1376 17.8307C17.1186 17.7975 17.0901 17.845 17.0664 17.8497C17.0474 17.8592 16.9904 17.864 17.0189 17.8972C17.0474 17.9162 17.0284 17.9495 17.0189 17.978C17.0189 18.0112 16.9809 18.0255 16.9524 18.0112C16.9239 18.0112 16.8811 17.9875 16.9049 17.959L16.9286 17.8735L16.9619 17.7785C16.9619 17.7452 16.9761 17.7215 16.9904 17.693C16.9904 17.6597 17.0141 17.6312 17.0141 17.598C17.0141 17.5837 17.0046 17.579 16.9951 17.579V17.5742ZM16.8194 17.921C16.8216 17.9197 16.824 17.9191 16.8265 17.9191C16.829 17.9191 16.8315 17.9197 16.8336 17.921C16.8431 17.9305 16.8431 17.94 16.8336 17.9495L16.8194 17.959C16.7956 17.959 16.7909 17.9542 16.7909 17.9447C16.7909 17.94 16.7909 17.9352 16.8051 17.9305C16.8109 17.9263 16.8173 17.9231 16.8241 17.921H16.8194ZM16.7719 18.1585C16.7481 18.1395 16.7529 18.1252 16.7861 18.0967C16.8051 18.0872 16.8099 18.0872 16.8289 18.1015C16.8574 18.1252 16.8574 18.1395 16.8289 18.1632C16.8194 18.1727 16.8146 18.1727 16.8051 18.1727C16.7909 18.1727 16.7861 18.1727 16.7719 18.1632V18.1585ZM16.9144 18.206C16.9038 18.2027 16.8949 18.1954 16.8896 18.1856C16.8842 18.1759 16.8829 18.1644 16.8859 18.1537C16.8954 18.1347 16.9001 18.13 16.9286 18.13C16.9619 18.13 16.9666 18.1347 16.9714 18.1632C16.9714 18.1822 16.9714 18.187 16.9571 18.1965C16.9518 18.2007 16.9457 18.2037 16.9392 18.2053C16.9326 18.207 16.9258 18.2072 16.9191 18.206H16.9144ZM21.1514 18.206C21.1419 18.2012 21.1371 18.1965 21.1371 18.1822C21.1371 18.1632 21.1466 18.149 21.1751 18.1395C21.2036 18.1252 21.2226 18.1252 21.2321 18.149C21.2464 18.1775 21.2464 18.187 21.2274 18.206C21.2179 18.2202 21.2131 18.2202 21.1894 18.2202C21.1656 18.2202 21.1609 18.2202 21.1514 18.2107V18.206ZM17.1139 18.263C17.0949 18.263 17.0854 18.244 17.0854 18.225C17.0854 18.2107 17.0854 18.206 17.0949 18.1965L17.1234 18.187L17.1519 18.1917C17.1756 18.2107 17.1804 18.2297 17.1661 18.2487C17.1519 18.2677 17.1376 18.2677 17.1091 18.263H17.1139ZM18.1494 18.3105L18.1399 18.2962C18.1399 18.2677 18.1399 18.244 18.1494 18.2155C18.1541 18.1917 18.1494 18.168 18.1589 18.1442L18.1779 18.0112C18.1779 17.9875 18.1779 17.9637 18.1874 17.9447C18.1921 17.9067 18.1874 17.8735 18.1969 17.8402C18.1969 17.826 18.2111 17.7927 18.2254 17.8117C18.2444 17.8402 18.2681 17.8592 18.2919 17.883C18.3109 17.8972 18.2919 17.9162 18.2776 17.921C18.2586 17.9257 18.2539 17.9495 18.2539 17.9685L18.2444 18.0255C18.2444 18.0587 18.2444 18.0872 18.2349 18.1205L18.2301 18.206L18.2206 18.263C18.2206 18.282 18.2206 18.3057 18.2016 18.3152C18.1874 18.3247 18.1636 18.3247 18.1541 18.3105H18.1494ZM19.5601 17.845L19.4984 17.902C19.4699 17.9257 19.5221 17.9352 19.5269 17.9542C19.5364 17.9827 19.5364 18.0112 19.5364 18.0397C19.5459 18.0682 19.5506 18.092 19.5459 18.1205C19.5459 18.1537 19.5079 18.1442 19.4889 18.1632C19.4651 18.1727 19.4556 18.1965 19.4414 18.2107C19.4301 18.2345 19.4236 18.2604 19.4224 18.2867C19.4224 18.3105 19.4081 18.3342 19.4224 18.3532L19.4271 18.3627H19.4509L19.5221 18.358C19.5791 18.3485 19.6409 18.3485 19.6979 18.3437L19.8024 18.3342C19.8309 18.339 19.8451 18.3105 19.8451 18.2867C19.8261 18.2535 19.8404 18.2202 19.8261 18.1917C19.8166 18.1537 19.8214 18.1205 19.8166 18.0872C19.8166 18.0587 19.7834 18.0492 19.7691 18.0682C19.7501 18.0872 19.7216 18.092 19.7121 18.111C19.6979 18.1395 19.7406 18.1395 19.7501 18.1585L19.7549 18.2297C19.7596 18.2582 19.7311 18.2582 19.7074 18.263C19.6836 18.2725 19.6504 18.2772 19.6361 18.2487C19.6266 18.225 19.6266 18.2012 19.6266 18.1775C19.6266 18.13 19.6124 18.092 19.6124 18.0492C19.6124 18.0017 19.5981 17.9495 19.5981 17.8972C19.5981 17.8735 19.5934 17.8402 19.5601 17.845ZM19.5316 18.2345H19.5459V18.2725L19.5316 18.2772C19.5254 18.2792 19.5191 18.2808 19.5126 18.282C19.5095 18.2821 19.5063 18.2821 19.5031 18.282C19.4936 18.2725 19.4936 18.2582 19.5079 18.244L19.5316 18.2345ZM18.1066 17.7975C18.0924 17.7975 18.0686 17.8307 18.0496 17.826C18.0069 17.8307 18.0116 17.8735 18.0449 17.8877V17.9257C18.0496 17.9637 18.0259 17.997 18.0306 18.035C18.0306 18.073 18.0164 18.1157 18.0164 18.1585C18.0021 18.2012 18.0021 18.244 17.9974 18.2867C17.9926 18.3247 17.9641 18.3105 17.9404 18.301V18.2535C17.9451 18.2107 17.9166 18.2012 17.8834 18.1965C17.8501 18.1965 17.8359 18.1727 17.8454 18.1442C17.8596 18.1252 17.8929 18.13 17.9166 18.13C17.9641 18.1395 17.9594 18.0777 17.9356 18.054C17.9166 18.0255 17.8786 18.0065 17.8691 17.978C17.8691 17.94 17.8454 17.8972 17.8121 17.8782C17.7599 17.8735 17.7171 17.9162 17.7029 17.9637C17.6791 17.9637 17.6554 17.9732 17.6364 17.9827C17.6031 17.9922 17.5556 18.0492 17.6031 18.073C17.6269 18.0777 17.7076 18.0967 17.6696 18.13C17.6506 18.168 17.6126 18.168 17.5794 18.1585C17.5461 18.1585 17.5081 18.1395 17.5081 18.1015C17.5034 18.0635 17.5034 18.0255 17.4891 17.9922C17.4796 17.9542 17.4369 17.9637 17.4321 18.0017C17.3989 18.0255 17.4036 18.0682 17.4274 18.0967C17.4416 18.13 17.4274 18.1727 17.4131 18.2012C17.4036 18.2487 17.3561 18.2487 17.3229 18.2582C17.3086 18.2677 17.2469 18.2582 17.2706 18.2915C17.3063 18.3079 17.3461 18.3128 17.3846 18.3057C17.4226 18.3057 17.4559 18.2725 17.4796 18.2392C17.5034 18.2155 17.5461 18.2297 17.5841 18.2297C17.6174 18.2297 17.6554 18.2535 17.6934 18.2345C17.7029 18.2107 17.7504 18.1632 17.7646 18.2107C17.7646 18.2535 17.7979 18.2725 17.8359 18.2677C17.8786 18.2677 17.8596 18.2962 17.8596 18.3247C17.8596 18.3675 17.8929 18.3912 17.9309 18.4102H17.9689C18.0021 18.396 18.0401 18.3817 18.0544 18.3437C18.0686 18.3105 18.0686 18.2725 18.0781 18.2392C18.0876 18.187 18.0971 18.13 18.0971 18.0777C18.1114 18.0302 18.1066 17.978 18.1161 17.9257L18.1304 17.8165C18.1304 17.7927 18.1209 17.7927 18.1066 17.7975ZM17.7884 17.9922C17.7931 17.9922 17.7979 18.0017 17.7979 18.016C17.7979 18.035 17.8074 18.0492 17.8216 18.054V18.0682L17.7836 18.0777C17.7599 18.0777 17.7409 18.0682 17.7266 18.054L17.7171 18.0445L17.7314 18.035L17.7551 18.0112C17.7694 17.997 17.7789 17.9922 17.7884 17.9922ZM20.9234 17.617C20.8961 17.6189 20.869 17.6237 20.8426 17.6312C20.7951 17.6312 20.7714 17.6787 20.8189 17.7072C20.8474 17.7785 20.8901 17.6882 20.9376 17.6977C21.0041 17.7072 21.0089 17.7832 21.0231 17.8402C21.0231 17.8925 21.0421 17.9447 21.0564 17.997C21.1039 18.0492 21.0231 18.0825 20.9899 18.0445C20.9614 18.0112 20.8949 17.9732 20.8616 18.016C20.8189 18.035 20.8141 18.092 20.7809 18.111C20.7239 18.1252 20.7191 18.054 20.6859 18.0255C20.6574 17.9827 20.6051 17.978 20.5624 17.9685C20.5434 17.9257 20.5529 17.8545 20.5149 17.826C20.4769 17.8402 20.4104 17.9067 20.4674 17.94C20.5149 17.9875 20.4436 18.0065 20.4199 18.035C20.3819 18.0777 20.3724 18.13 20.3724 18.1775C20.3106 18.2107 20.3011 18.1395 20.2916 18.0967C20.2916 18.0445 20.2441 18.0587 20.2109 18.0777C20.1634 18.0967 20.1444 18.1395 20.1159 18.1727V18.2677C20.1254 18.3105 20.1729 18.2915 20.2014 18.2867C20.2489 18.2677 20.2679 18.32 20.2299 18.3485C20.2014 18.377 20.1254 18.3627 20.1349 18.415H20.2109C20.2584 18.4007 20.3154 18.3627 20.3201 18.3057C20.3296 18.2582 20.4009 18.263 20.4389 18.2535C20.4864 18.2392 20.5481 18.2345 20.5624 18.301C20.5956 18.3342 20.6669 18.3722 20.7049 18.3247C20.723 18.3133 20.7375 18.2969 20.7467 18.2776C20.756 18.2583 20.7596 18.2367 20.7571 18.2155C20.7524 18.1775 20.8189 18.1775 20.8379 18.2012C20.8616 18.2392 20.9376 18.2297 20.9756 18.2012C21.0136 18.1775 21.0231 18.1252 21.0801 18.1252L21.3366 18.054C21.4031 18.0397 21.3271 17.997 21.3081 17.9685C21.2606 17.9447 21.2131 18.0492 21.1561 17.997C21.1086 17.9637 21.1134 17.902 21.0991 17.8497C21.0849 17.7832 21.0896 17.7072 21.0421 17.6597C21.0136 17.6265 20.9661 17.617 20.9234 17.617ZM20.6004 18.0682C20.6051 18.0682 20.6146 18.0682 20.6241 18.0777C20.6431 18.0872 20.6574 18.1062 20.6574 18.1252C20.6574 18.1347 20.6574 18.1347 20.6431 18.1395L20.6194 18.149C20.6099 18.149 20.5861 18.1347 20.5861 18.1252V18.1062C20.5766 18.0872 20.5766 18.0872 20.5861 18.0777L20.6004 18.0682ZM20.9091 18.0872C20.9281 18.0872 20.9376 18.0872 20.9471 18.1015C20.9519 18.1205 20.9471 18.13 20.9281 18.1395L20.9044 18.149L20.8854 18.1347C20.8759 18.13 20.8711 18.1252 20.8711 18.1157C20.8711 18.1015 20.8901 18.0872 20.9091 18.0825V18.0872ZM20.4816 18.0872C20.4911 18.0872 20.4959 18.0872 20.5006 18.0967C20.5101 18.1062 20.5149 18.111 20.5149 18.1252V18.1537C20.5149 18.168 20.5149 18.1632 20.4864 18.1632C20.4579 18.1632 20.4531 18.1632 20.4531 18.1347C20.4531 18.1157 20.4531 18.111 20.4674 18.1015C20.4721 18.092 20.4816 18.092 20.4864 18.092L20.4816 18.0872ZM20.2251 18.1585C20.2296 18.1598 20.2337 18.1623 20.237 18.1656C20.2403 18.1689 20.2428 18.173 20.2441 18.1775C20.2441 18.1917 20.2441 18.2012 20.2346 18.206C20.2204 18.2107 20.1966 18.2155 20.1871 18.206C20.187 18.2044 20.187 18.2028 20.1871 18.2012C20.1776 18.1965 20.1776 18.1917 20.1871 18.187V18.1822L20.1966 18.168C20.1996 18.1633 20.204 18.1599 20.2092 18.1581C20.2144 18.1564 20.22 18.1565 20.2251 18.1585ZM20.6621 18.2155L20.6859 18.2202V18.2487H20.6289L20.6241 18.2392C20.6241 18.2297 20.6241 18.225 20.6336 18.2202L20.6621 18.2155ZM19.8499 18.4435C19.8451 18.4435 19.8356 18.4387 19.8451 18.434C19.8499 18.4197 19.8689 18.415 19.8831 18.4055C19.909 18.3956 19.9319 18.3792 19.9496 18.358C19.9496 18.339 19.9686 18.3295 19.9686 18.3105L19.9639 18.244C19.9575 18.224 19.944 18.2071 19.9259 18.1965C19.9116 18.1917 19.8926 18.187 19.8879 18.168C19.8879 18.1537 19.9021 18.1395 19.9069 18.1252L19.9354 18.0682C19.9496 18.054 19.9686 18.0682 19.9734 18.0777L19.9971 18.1252C20.0114 18.1395 20.0209 18.1537 20.0256 18.1727C20.0351 18.1917 20.0446 18.206 20.0446 18.2202L20.0541 18.282C20.0541 18.3057 20.0541 18.3342 20.0446 18.358L20.0161 18.396C20.0019 18.4102 19.9876 18.4245 19.9686 18.4292C19.9544 18.434 19.9449 18.4482 19.9259 18.4482H19.8546L19.8499 18.4435ZM19.5221 18.4625C19.5126 18.453 19.5079 18.4482 19.5079 18.434C19.5079 18.4197 19.5079 18.4197 19.5221 18.4055C19.5411 18.3865 19.5506 18.3865 19.5886 18.4055C19.6219 18.4245 19.6361 18.4245 19.6361 18.4102C19.6409 18.4007 19.6599 18.3865 19.6836 18.3865C19.6924 18.3868 19.7008 18.3902 19.7074 18.396C19.7169 18.4055 19.7216 18.4102 19.7216 18.4292C19.7216 18.453 19.7216 18.453 19.7074 18.4672C19.6931 18.4767 19.6931 18.4767 19.6741 18.4767C19.6657 18.4763 19.6576 18.4733 19.6508 18.4682C19.6441 18.4632 19.6389 18.4562 19.6361 18.4482C19.6361 18.4387 19.6361 18.434 19.6266 18.4435L19.6171 18.4482C19.6076 18.4482 19.5886 18.4625 19.5791 18.472L19.5554 18.4767C19.5364 18.4767 19.5364 18.4767 19.5221 18.4625ZM18.5816 18.0397C18.5484 18.0397 18.5151 18.0682 18.5104 18.1015C18.5199 18.1347 18.5484 18.1727 18.5294 18.206C18.5436 18.2535 18.4914 18.2725 18.4581 18.2487C18.4391 18.2012 18.4296 18.1537 18.3964 18.1062C18.3584 18.0967 18.3441 18.1585 18.3156 18.1822C18.3299 18.2155 18.3679 18.2487 18.3726 18.2915C18.3821 18.339 18.3536 18.3865 18.3204 18.4055C18.2871 18.4387 18.2396 18.4292 18.2016 18.434C18.1541 18.4625 18.2349 18.472 18.2586 18.472C18.3061 18.4767 18.3584 18.472 18.4011 18.434C18.4344 18.4197 18.4296 18.3532 18.4724 18.3485L18.7004 18.3627C18.7384 18.3722 18.8001 18.358 18.8286 18.3865C18.8286 18.434 18.8761 18.472 18.9189 18.491C18.9426 18.5005 18.9664 18.4672 18.9901 18.4625C19.0376 18.4482 19.0234 18.3912 19.0519 18.3675H19.2894C19.2989 18.3675 19.3036 18.3437 19.3179 18.3342L19.3084 18.244C19.2941 18.206 19.3084 18.1585 19.2846 18.1252C19.2419 18.1157 19.2086 18.149 19.1706 18.1537C19.1231 18.1727 19.0899 18.2155 19.0851 18.263C19.0614 18.3057 19.0186 18.2535 19.0376 18.2155L19.0329 18.168C19.0091 18.1442 18.9664 18.1537 18.9331 18.149L18.7906 18.1395C18.7431 18.1395 18.7004 18.1442 18.6624 18.1347C18.6149 18.1347 18.6149 18.0872 18.6149 18.0492C18.6054 18.042 18.5935 18.0386 18.5816 18.0397ZM18.6766 18.2155L18.7241 18.2202H18.7859C18.8334 18.2297 18.8809 18.2297 18.9284 18.2297C18.9379 18.2297 18.9474 18.2392 18.9569 18.2487V18.3437C18.9569 18.358 18.9569 18.377 18.9474 18.3817C18.9449 18.3855 18.9417 18.3887 18.9379 18.3912C18.9309 18.39 18.9243 18.3872 18.9186 18.3831C18.9128 18.379 18.9081 18.3737 18.9046 18.3675V18.301C18.8952 18.293 18.8836 18.288 18.8714 18.2867L18.7479 18.282L18.6529 18.2772C18.6386 18.2725 18.6196 18.2772 18.6101 18.2582C18.6006 18.2487 18.6149 18.2297 18.6291 18.225C18.6441 18.2183 18.6603 18.215 18.6766 18.2155ZM19.2134 18.2297C19.2181 18.2297 19.2229 18.2297 19.2229 18.244L19.2324 18.2677C19.2324 18.2725 19.2324 18.2772 19.2229 18.2772C19.1991 18.2867 19.1754 18.2867 19.1659 18.2772C19.1659 18.2725 19.1659 18.2535 19.1754 18.2487L19.2134 18.2297Z" fill="#C09300"/>
<path d="M18.9997 15.5421C20.5482 14.3546 20.4152 12.6066 20.4152 12.6066L20.2964 12.6161C19.9687 12.6161 19.1944 12.4261 19.0139 12.1934C18.8239 12.4071 18.0259 12.6209 17.7029 12.6209L17.5842 12.6066C17.5842 12.6066 17.4464 14.3499 18.9997 15.5421Z" fill="white" stroke="#C09300" stroke-width="0.11"/>
<path d="M20.2915 12.7297H20.2535C19.959 12.7297 19.275 12.5825 19.009 12.3545C18.7335 12.5635 18.0353 12.7345 17.7455 12.7345C17.7327 12.734 17.72 12.7324 17.7075 12.7297C17.7101 13.0299 17.7516 13.3285 17.831 13.618C18.0215 14.3155 18.4312 14.9333 18.9995 15.3802C19.5682 14.9316 19.9778 14.3122 20.168 13.6132C20.247 13.3253 20.2885 13.0283 20.2915 12.7297Z" fill="white" stroke="#C09300" stroke-width="0.09"/>
<path d="M18.496 12.5878C18.2409 12.6708 17.9756 12.7188 17.7075 12.7303L17.7123 12.925C17.7285 13.158 17.7683 13.3888 17.831 13.6138C17.9587 14.0809 18.1855 14.5151 18.496 14.8868V12.5878ZM19.4745 12.5878V14.9248C19.8 14.5445 20.0368 14.0967 20.168 13.6138C20.2307 13.3888 20.2705 13.158 20.2868 12.925L20.2915 12.735H20.2535C20.073 12.735 19.7595 12.678 19.4745 12.583V12.5878Z" fill="#C09300"/>
<path d="M19.5842 12.0173C19.6174 12.0221 19.5414 11.8511 19.5414 11.8511C19.6269 11.9366 19.9404 11.9603 19.9404 11.9603C19.7504 11.8748 19.5604 11.2431 19.5842 10.7348C19.6032 10.2313 19.5129 10.0318 19.4417 9.95581C19.3467 9.86081 19.0379 9.77531 18.8384 9.76581C18.7197 9.76106 18.7434 9.85131 18.7434 9.85131C18.5297 9.79906 18.3159 9.77531 18.2209 9.84181C18.1354 9.89881 18.1164 10.1981 18.1829 10.1458C18.3397 10.0176 18.4774 10.1363 18.5724 10.2741C18.6579 10.3928 18.6532 10.7348 18.5297 11.1386C18.4203 11.4438 18.2597 11.7281 18.0547 11.9793C18.2447 11.9793 18.5107 11.8131 18.5107 11.8131L18.4489 12.0743C18.6484 11.9793 18.8052 11.8321 18.8052 11.8321L18.9952 12.0316C19.0569 11.9461 19.1852 11.8321 19.1852 11.8321C19.1852 11.8321 19.3419 11.9983 19.5842 12.0221V12.0173Z" fill="white" stroke="#C09300" stroke-width="0.12"/>
<path d="M18.8147 10.8109C18.8147 10.8109 18.7102 11.5899 18.5107 11.8084M18.9857 10.7871C18.9857 10.7871 18.9382 11.5804 18.8052 11.8321M19.133 10.8204C19.133 10.8204 19.133 11.6849 19.1805 11.8321M19.323 10.8631C19.323 10.8631 19.361 11.5899 19.5415 11.8511" stroke="#C09300" stroke-width="0.13"/>
<path d="M18.6201 10.4308C18.6159 10.3757 18.5996 10.3223 18.5726 10.2741C18.4776 10.1316 18.3399 10.0176 18.1831 10.1458C18.1831 10.1458 18.2354 9.97958 18.3541 9.97483C18.4396 9.97008 18.6439 10.0413 18.8244 10.3453C18.8244 10.3453 18.6914 10.3168 18.6581 10.3453C18.6011 10.3928 18.6249 10.4308 18.6249 10.4308H18.6201Z" fill="#C09300" stroke="#C09300" stroke-width="0.03"/>
<path d="M18.1641 9.94156C18.1783 9.89406 18.1973 9.85606 18.2258 9.84181C18.3208 9.77531 18.5298 9.79431 18.7436 9.85131C18.7436 9.85131 18.7246 9.76106 18.8386 9.76581C19.0381 9.77531 19.3421 9.86081 19.4371 9.95581C19.4675 9.98921 19.4916 10.0278 19.5083 10.0698C19.4608 10.0033 19.3278 10.0081 19.2946 10.0128C19.2471 10.0176 19.2138 10.0128 19.1473 10.0318C19.1141 10.0413 19.0666 10.0508 19.0381 10.0698C19.0191 10.0888 19.0001 10.1458 18.9716 10.1458C18.9241 10.1458 18.9241 10.1363 18.9098 10.1221C18.8956 10.0983 18.8861 10.0698 18.8671 10.0746C18.8196 10.0793 18.7341 10.0413 18.6296 9.95581C18.5203 9.87031 18.4776 9.85131 18.3446 9.86081C18.2021 9.87031 18.1641 9.95106 18.1641 9.95106V9.94156Z" fill="#C09300" stroke="#C09300" stroke-width="0.03"/>
<path d="M18.9427 10.0652C18.9742 10.0652 18.9997 10.0397 18.9997 10.0082C18.9997 9.97669 18.9742 9.95117 18.9427 9.95117C18.9113 9.95117 18.8857 9.97669 18.8857 10.0082C18.8857 10.0397 18.9113 10.0652 18.9427 10.0652Z" fill="white"/>
</g>
<defs>
<clipPath id="clip0_10_33224">
<rect width="38" height="28.5" rx="3" fill="white"/>
</clipPath>
</defs>
</svg>
