<svg xmlns="http://www.w3.org/2000/svg" width="40" height="40" viewBox="0 0 40 40">
  <g id="Email" transform="translate(-4581 -1069)">
    <circle id="Ellipse_3" data-name="Ellipse 3" cx="20" cy="20" r="20" transform="translate(4581 1069)" fill="#679ad2"/>
    <g id="vuesax_linear_sms" data-name="vuesax/linear/sms" transform="translate(4033 827)">
      <g id="sms">
        <path id="Vector" d="M15,17H5c-3,0-5-1.5-5-5V5C0,1.5,2,0,5,0H15c3,0,5,1.5,5,5v7C20,15.5,18,17,15,17Z" transform="translate(558 253.5)" fill="none" stroke="#fff" stroke-linecap="round" stroke-linejoin="round" stroke-width="1.5"/>
        <path id="Vector-2" data-name="Vector" d="M10,0,6.87,2.5a3.166,3.166,0,0,1-3.75,0L0,0" transform="translate(563 259)" fill="none" stroke="#fff" stroke-linecap="round" stroke-linejoin="round" stroke-width="1.5"/>
        <path id="Vector-3" data-name="Vector" d="M0,0H24V24H0Z" transform="translate(556 250)" fill="none" opacity="0"/>
      </g>
    </g>
  </g>
</svg>
