<svg xmlns="http://www.w3.org/2000/svg" width="40" height="40" viewBox="0 0 40 40">
  <g id="Gender" transform="translate(-4581 -1069)">
    <circle id="Ellipse_3" data-name="Ellipse 3" cx="20" cy="20" r="20" transform="translate(4581 1069)" fill="#679ad2"/>
    <path id="gender-male" d="M43.19,32h-4.8a.8.8,0,0,0,0,1.6h2.869l-4.207,4.207a8,8,0,1,0,1.131,1.131l4.207-4.206V37.6a.8.8,0,1,0,1.6,0V32.8A.8.8,0,0,0,43.19,32ZM36.514,48.528a6.4,6.4,0,1,1,0-9.053,6.4,6.4,0,0,1,0,9.053Z" transform="translate(4567.01 1047)" fill="#fff"/>
  </g>
</svg>
