<svg xmlns="http://www.w3.org/2000/svg" width="40" height="40" viewBox="0 0 40 40">
  <g id="Phone" transform="translate(-4581 -1069)">
    <circle id="Ellipse_3" data-name="Ellipse 3" cx="20" cy="20" r="20" transform="translate(4581 1069)" fill="#679ad2"/>
    <path id="phone-2" data-name="phone" d="M51.037,37.447l-4.711-2.111-.013-.006a1.6,1.6,0,0,0-1.517.14.812.812,0,0,0-.075.056L42.287,37.6A9.211,9.211,0,0,1,38.4,33.75l2.078-2.471c.02-.025.039-.05.057-.077a1.6,1.6,0,0,0,.132-1.506v-.012l-2.117-4.719a1.6,1.6,0,0,0-1.662-.952A5.626,5.626,0,0,0,32,29.6,14.417,14.417,0,0,0,46.4,44a5.626,5.626,0,0,0,5.588-4.892A1.6,1.6,0,0,0,51.037,37.447ZM46.4,42.4A12.814,12.814,0,0,1,33.6,29.6a4.02,4.02,0,0,1,3.487-4,.061.061,0,0,0,0,.012l2.1,4.7L37.12,32.787a.613.613,0,0,0-.057.077,1.6,1.6,0,0,0-.1,1.57,10.8,10.8,0,0,0,4.646,4.611,1.6,1.6,0,0,0,1.575-.114.844.844,0,0,0,.074-.056L45.689,36.8l4.7,2.105H50.4a4.021,4.021,0,0,1-4,3.5Z" transform="translate(4559 1054.999)" fill="#fff"/>
  </g>
</svg>
