<svg xmlns="http://www.w3.org/2000/svg" width="40" height="40" viewBox="0 0 40 40">
  <g id="Specialization" transform="translate(-2660 158)">
    <circle id="Ellipse_3" data-name="Ellipse 3" cx="20" cy="20" r="20" transform="translate(2660 -158)" fill="#679ad2"/>
    <g id="Group_85" data-name="Group 85" transform="translate(-43 1)">
      <path id="stethoscope-thin" d="M53.217,40.4a.8.8,0,1,1-.8-.8A.8.8,0,0,1,53.217,40.4ZM52.8,43.979A4.409,4.409,0,0,1,48.412,48h-2.4a4.407,4.407,0,0,1-4.4-4.4V39.185A6,6,0,0,1,36,33.2v-4A1.2,1.2,0,0,1,37.2,28h1.6a.4.4,0,1,1,0,.8H37.2a.4.4,0,0,0-.4.4v4a5.2,5.2,0,0,0,5.274,5.2,5.264,5.264,0,0,0,5.136-5.283V29.2a.4.4,0,0,0-.4-.4h-1.6a.4.4,0,1,1,0-.8h1.6a1.2,1.2,0,0,1,1.2,1.2v3.917a6.076,6.076,0,0,1-5.606,6.069V43.6a3.6,3.6,0,0,0,3.6,3.6h2.4A3.607,3.607,0,0,0,52,43.975a3.6,3.6,0,1,1,.8,0ZM55.219,40.4a2.8,2.8,0,1,0-2.8,2.8,2.8,2.8,0,0,0,2.8-2.8Z" transform="translate(2677 -177)" fill="#fff"/>
      <g id="Rectangle_83" data-name="Rectangle 83" transform="translate(2711 -151)" fill="#fff" stroke="#707070" stroke-width="1" opacity="0">
        <rect width="24" height="24" stroke="none"/>
        <rect x="0.5" y="0.5" width="23" height="23" fill="none"/>
      </g>
    </g>
  </g>
</svg>
