<svg width="38" height="29" viewBox="0 0 38 29" fill="none" xmlns="http://www.w3.org/2000/svg">
<g clip-path="url(#clip0_10_33267)">
<path fill-rule="evenodd" clip-rule="evenodd" d="M0 0H38V2.19319H0V0ZM0 4.38633H38V6.57952H0V4.38633ZM0 8.76708H38V10.9658H0V8.76708ZM0 13.1534H38V15.3466H0V13.1534ZM0 17.5397H38V19.7329H0V17.5397ZM0 21.9205H38V24.1137H0V21.9205ZM0 26.3068H38V28.5H0V26.3068Z" fill="#BD3D44"/>
<path fill-rule="evenodd" clip-rule="evenodd" d="M0 2.19336H38V4.38649H0V2.19336ZM0 6.57963H38V8.76724H0V6.57963ZM0 10.9604H38V13.1536H0V10.9604ZM0 15.3468H38V17.5399H0V15.3468ZM0 19.7331H38V21.9262H0V19.7331ZM0 24.1138H38V26.307H0V24.1138Z" fill="white"/>
<path fill-rule="evenodd" clip-rule="evenodd" d="M0 0H15.1992V15.3466H0V0Z" fill="#192F5D"/>
<path fill-rule="evenodd" clip-rule="evenodd" d="M1.2656 0.657227L1.40623 1.26386H1.85156L1.49215 1.63685L1.6289 2.24913L1.2656 1.87061L0.906229 2.24355L1.04294 1.63685L0.679688 1.26386H1.13281L1.2656 0.657227ZM3.80077 0.657227L3.93748 1.26386H4.38669L4.02339 1.63685L4.16015 2.24913L3.80077 1.87061L3.43748 2.24355L3.57419 1.63685L3.21481 1.26386H3.66015L3.80077 0.657227ZM6.33202 0.657227L6.47264 1.26392H6.91406L6.55469 1.63691L6.69135 2.24919L6.3281 1.87067L5.96873 2.24361L6.10544 1.63691L5.74214 1.26392H6.19139L6.33202 0.657227ZM8.86719 0.657227L9.00385 1.26392H9.4531L9.08981 1.63691L9.23044 2.24919L8.86714 1.87067L8.50389 2.24361L8.64452 1.63691L8.28123 1.26392H8.72656L8.86719 0.657227ZM11.3984 0.657227L11.5391 1.26392H11.9844L11.625 1.63691L11.7617 2.24919L11.3984 1.87067L11.039 2.24361L11.1758 1.63691L10.8164 1.26392H11.2617L11.3984 0.657227ZM13.9336 0.657227L14.0703 1.26392H14.5195L14.1562 1.63691L14.2969 2.24919L13.9336 1.87067L13.5703 2.24361L13.7109 1.63691L13.3476 1.26392H13.7969L13.9336 0.657227ZM2.53515 2.19344L2.67185 2.80025H3.12106L2.75777 3.17312L2.8906 3.77993L2.53902 3.40694L2.17577 3.77988L2.30465 3.17318L1.9531 2.80019H2.39844L2.53515 2.19344ZM5.06639 2.19344L5.20702 2.80025H5.65231L5.28902 3.17312L5.42969 3.77993L5.06635 3.40694L4.7031 3.77988L4.84373 3.17318L4.48044 2.80019H4.92964L5.06639 2.19344ZM7.60156 2.19344L7.73823 2.80025H8.18748L7.82419 3.17312L7.96089 3.77993L7.60152 3.40694L7.23827 3.77988L7.37498 3.17324L7.0156 2.80025H7.46094L7.60156 2.19344ZM10.1328 2.19344L10.2734 2.80025H10.7187L10.3554 3.17312L10.4961 3.77993L10.1328 3.40694L9.77339 3.77988L9.91014 3.17318L9.54685 2.80019H9.99998L10.1328 2.19344ZM12.6679 2.19344L12.8046 2.80025H13.2539L12.8906 3.17312L13.0273 3.77993L12.6679 3.40694L12.3046 3.77988L12.4414 3.17318L12.082 2.80019H12.5273L12.6679 2.19344ZM1.2656 3.72436L1.40623 4.34222H1.85156L1.49215 4.71515L1.6289 5.3219L1.2656 4.94339L0.906229 5.3219L1.04294 4.70957L0.679688 4.33669H1.13281L1.2656 3.72436ZM3.80077 3.72436L3.93748 4.33652H4.38669L4.02339 4.70945L4.16015 5.31626L3.80077 4.93769L3.43748 5.3162L3.57419 4.70393L3.21481 4.33099H3.66015L3.80077 3.72436ZM6.33202 3.72436L6.47264 4.33663H6.91406L6.55469 4.70957L6.69135 5.31638L6.3281 4.93781L5.96873 5.31632L6.10544 4.70405L5.74214 4.33111H6.19139L6.33202 3.72436ZM8.86719 3.72436L9.00385 4.33663H9.4531L9.08981 4.70957L9.23044 5.31638L8.86714 4.93781L8.50389 5.31632L8.64452 4.70405L8.28123 4.33111H8.72656L8.86719 3.72436ZM11.3984 3.72436L11.5391 4.33663H11.9844L11.625 4.70951L11.7617 5.31632L11.3984 4.93775L11.039 5.31626L11.1758 4.70399L10.8164 4.33105H11.2617L11.3984 3.72436ZM13.9336 3.72436L14.0703 4.33663H14.5195L14.1562 4.70957L14.2969 5.31638L13.9336 4.93781L13.5703 5.31632L13.7109 4.70405L13.3476 4.33111H13.7969L13.9336 3.72436ZM2.53515 5.26063L2.67185 5.86738H3.12106L2.75777 6.24026L2.89452 6.85259L2.53515 6.47407L2.17185 6.84701L2.30856 6.24031L1.94919 5.86738H2.39456L2.53515 5.26063ZM5.06639 5.26063L5.20702 5.86738H5.65231L5.28902 6.24026L5.42969 6.85259L5.06635 6.47407L4.7031 6.84701L4.84373 6.24031L4.48044 5.86738H4.92964L5.06639 5.26063ZM7.60156 5.26063L7.73823 5.86738H8.18748L7.82419 6.24026L7.96089 6.85259L7.60152 6.47407L7.23827 6.84701L7.37498 6.24031L7.0156 5.86738H7.46094L7.60156 5.26063ZM10.1328 5.26063L10.2734 5.86738H10.7187L10.3594 6.24026L10.4961 6.85259L10.1328 6.47407L9.77339 6.84701L9.91014 6.24031L9.54685 5.86738H9.99998L10.1328 5.26063ZM12.6679 5.26063L12.8046 5.86738H13.2539L12.8906 6.24026L13.0273 6.85259L12.6679 6.47407L12.3046 6.84701L12.4414 6.24031L12.082 5.86738H12.5273L12.6679 5.26063ZM1.2656 6.79696L1.40623 7.40371H1.85156L1.49215 7.77658L1.6289 8.38892L1.2656 8.0104L0.906229 8.38334L1.04294 7.77664L0.679688 7.40371H1.13281L1.2656 6.79696ZM3.80077 6.79696L3.93748 7.40371H4.38669L4.02339 7.77658L4.16015 8.38339L3.80077 8.0104L3.43748 8.38334L3.57419 7.77664L3.21481 7.40371H3.66015L3.80077 6.79696ZM6.33202 6.79696L6.47264 7.40371H6.91406L6.55469 7.77658L6.69135 8.38892L6.3281 8.0104L5.96873 8.38334L6.10544 7.77664L5.74214 7.40371H6.19139L6.33202 6.79696ZM8.86719 6.79696L9.00385 7.40371H9.4531L9.08981 7.77658L9.23044 8.38892L8.86714 8.0104L8.50389 8.38334L8.64452 7.77664L8.28123 7.40371H8.72656L8.86719 6.79696ZM11.3984 6.79696L11.5391 7.40371H11.9844L11.625 7.77658L11.7617 8.38892L11.3984 8.0104L11.039 8.38334L11.1758 7.77664L10.8164 7.40371H11.2617L11.3984 6.79696ZM13.9336 6.79696L14.0703 7.40371H14.5195L14.1562 7.77658L14.2969 8.38892L13.9336 8.0104L13.5703 8.38334L13.7109 7.77664L13.3476 7.40371H13.7969L13.9336 6.79696ZM2.53515 8.33328L2.67185 8.94003H3.12106L2.75777 9.31291L2.89452 9.91972L2.53515 9.54121L2.17185 9.91972L2.30856 9.30739L1.94919 8.93445H2.39456L2.53515 8.33328ZM5.06639 8.33328L5.20702 8.94003H5.65231L5.28902 9.31291L5.42969 9.91972L5.06635 9.54121L4.7031 9.91972L4.84373 9.30739L4.48044 8.93445H4.92964L5.06639 8.33328ZM7.60156 8.33328L7.73823 8.94003H8.18748L7.82419 9.31291L7.96089 9.91972L7.60152 9.54121L7.23827 9.91972L7.37498 9.30739L7.0156 8.93445H7.46094L7.60156 8.33328ZM10.1328 8.33328L10.2734 8.94003H10.7187L10.3594 9.31291L10.4961 9.91972L10.1328 9.54121L9.77339 9.91972L9.91014 9.30739L9.54685 8.93445H9.99998L10.1328 8.33328ZM12.6679 8.33328L12.8046 8.94003H13.2539L12.8906 9.31291L13.0273 9.91972L12.6679 9.54121L12.3046 9.91972L12.4414 9.30739L12.082 8.93445H12.5273L12.6679 8.33328ZM1.2656 9.86403L1.40623 10.4764H1.85156L1.49215 10.8492L1.6289 11.4505L1.2656 11.0775L0.906229 11.4504L1.04294 10.8437L0.679688 10.4708H1.13281L1.2656 9.86403ZM3.80077 9.86403L3.93748 10.4764H4.38669L4.02339 10.8492L4.16406 11.4505L3.80073 11.0775L3.43748 11.4504L3.5781 10.8437L3.21481 10.4708H3.66015L3.80077 9.86403ZM6.33202 9.86403L6.47264 10.4764H6.91406L6.55469 10.8492L6.69135 11.4505L6.3281 11.0775L5.96873 11.4504L6.10544 10.8437L5.74214 10.4708H6.19139L6.33202 9.86403ZM8.86719 9.86403L9.00385 10.4764H9.4531L9.08981 10.8492L9.23044 11.4505L8.86714 11.0775L8.50389 11.4504L8.64452 10.8437L8.28123 10.4708H8.72656L8.86719 9.86403ZM11.3984 9.86403L11.5391 10.4764H11.9844L11.625 10.8492L11.7617 11.4505L11.3984 11.0775L11.039 11.4504L11.1758 10.8437L10.8164 10.4708H11.2617L11.3984 9.86403ZM13.9336 9.86403L14.0703 10.4764H14.5195L14.1562 10.8492L14.2969 11.4505L13.9336 11.0775L13.5703 11.4504L13.7109 10.8437L13.3476 10.4708H13.7969L13.9336 9.86403ZM2.53515 11.4004L2.67185 12.0071H3.12106L2.75777 12.38L2.89452 12.9924L2.53515 12.6139L2.17185 12.9867L2.30856 12.38L1.94919 12.0071H2.39456L2.53515 11.4004ZM5.06639 11.4004L5.20702 12.0071H5.65231L5.28902 12.38L5.42969 12.9924L5.06635 12.6139L4.7031 12.9867L4.84373 12.38L4.48044 12.0071H4.92964L5.06639 11.4004ZM7.60156 11.4004L7.73823 12.0071H8.18748L7.82419 12.38L7.96089 12.9924L7.60152 12.6139L7.23827 12.9867L7.37498 12.38L7.0156 12.0071H7.46094L7.60156 11.4004ZM10.1328 11.4004L10.2734 12.0071H10.7187L10.3594 12.38L10.4961 12.9924L10.1328 12.6139L9.77339 12.9867L9.91014 12.38L9.54685 12.0071H9.99998L10.1328 11.4004ZM12.6679 11.4004L12.8046 12.0071H13.2539L12.8906 12.38L13.0273 12.9924L12.6679 12.6139L12.3046 12.9867L12.4414 12.38L12.082 12.0071H12.5273L12.6679 11.4004ZM1.2656 12.9367L1.40623 13.5434H1.85156L1.49215 13.9164L1.6289 14.5231L1.2656 14.1502L0.906229 14.5231L1.04294 13.9108L0.679688 13.5379H1.13281L1.2656 12.9367ZM3.80077 12.9367L3.93748 13.5434H4.38669L4.02339 13.9164L4.16406 14.5231L3.80073 14.1502L3.43748 14.5231L3.5781 13.9108L3.21481 13.5379H3.66015L3.80077 12.9367ZM6.33202 12.9367L6.47264 13.5434H6.91406L6.56248 13.9164L6.69919 14.5231L6.33589 14.1502L5.97652 14.5231L6.11327 13.9108L5.74998 13.5379H6.19919L6.33202 12.9367ZM8.86719 12.9367L9.00385 13.5434H9.4531L9.08981 13.9164L9.23044 14.5231L8.86714 14.1502L8.50389 14.5231L8.64452 13.9108L8.28123 13.5379H8.72656L8.86719 12.9367ZM11.3984 12.9367L11.5391 13.5434H11.9844L11.625 13.9164L11.7617 14.5231L11.3984 14.1502L11.039 14.5231L11.1758 13.9108L10.8164 13.5379H11.2617L11.3984 12.9367ZM13.9336 12.9367L14.0703 13.5434H14.5195L14.1562 13.9164L14.2969 14.5231L13.9336 14.1502L13.5703 14.5231L13.7109 13.9108L13.3476 13.5379H13.7969L13.9336 12.9367Z" fill="white"/>
</g>
<defs>
<clipPath id="clip0_10_33267">
<rect width="38" height="28.5" rx="3" fill="white"/>
</clipPath>
</defs>
</svg>
